<svg xmlns="http://www.w3.org/2000/svg" width="100" height="295" viewBox="0 0 100.0 295.3">
<rect width="100%" height="100%" fill="white"/>
<line x1="0" y1="159.3" x2="100.0" y2="159.3" stroke="#d0e0ff" stroke-width="1"/>
<path d="M33.89 34.52 L33.89 31.40 Q45.90 31.40 52.10 25.00 Q53.81 25.00 54.10 25.39 Q54.39 25.78 54.39 27.59 L54.39 83.69 Q54.39 86.67 55.86 87.60 Q57.32 88.53 63.72 88.53 L66.89 88.53 L66.89 91.60 Q63.38 91.31 50.68 91.31 Q37.99 91.31 34.52 91.60 L34.52 88.53 L37.70 88.53 Q43.99 88.53 45.51 87.62 Q47.02 86.72 47.02 83.69 L47.02 31.88 Q41.80 34.52 33.89 34.52 Z " fill="black"/>
<path d="M35.99 194.87 Q35.99 193.61 36.11 193.23 Q36.23 192.86 36.77 192.27 L50.21 177.30 Q57.55 169.03 57.55 161.82 Q57.55 157.14 55.11 153.79 Q52.67 150.44 48.19 150.44 Q45.11 150.44 42.51 152.32 Q39.92 154.20 38.72 157.55 Q38.93 157.48 39.64 157.48 Q41.39 157.48 42.36 158.57 Q43.33 159.67 43.33 161.14 Q43.33 163.02 42.12 163.92 Q40.91 164.83 39.71 164.83 Q39.23 164.83 38.60 164.73 Q37.97 164.62 36.98 163.65 Q35.99 162.68 35.99 160.93 Q35.99 156.04 39.69 152.15 Q43.40 148.25 49.08 148.25 Q55.50 148.25 59.72 152.06 Q63.95 155.87 63.95 161.82 Q63.95 163.91 63.31 165.80 Q62.68 167.70 61.84 169.17 Q61.01 170.64 58.75 173.00 Q56.49 175.36 54.68 177.03 Q52.87 178.71 48.80 182.26 L41.39 189.47 L54.00 189.47 Q60.15 189.47 60.63 188.93 Q61.31 187.93 62.17 182.70 L63.95 182.70 L61.96 194.87 L35.99 194.87 Z " fill="black"/>
<path d="M35.44 259.29 Q35.44 257.20 36.64 256.21 Q37.83 255.22 39.37 255.22 Q40.98 255.22 42.12 256.26 Q43.27 257.31 43.27 259.12 Q43.27 261.07 41.92 262.16 Q40.57 263.25 38.65 262.98 Q40.33 265.78 43.42 267.05 Q46.51 268.31 49.38 268.31 Q52.39 268.31 54.84 265.71 Q57.28 263.12 57.28 256.76 Q57.28 251.36 55.18 248.25 Q53.08 245.14 48.94 245.14 L45.86 245.14 Q44.80 245.14 44.50 245.04 Q44.19 244.93 44.19 244.35 Q44.19 243.67 45.25 243.53 Q46.31 243.53 47.98 243.33 Q52.05 243.19 54.20 239.67 Q56.15 236.39 56.15 231.71 Q56.15 227.43 54.12 225.64 Q52.08 223.84 49.45 223.84 Q46.99 223.84 44.29 224.87 Q41.59 225.90 40.12 228.19 Q44.46 228.19 44.46 231.71 Q44.46 233.24 43.49 234.25 Q42.51 235.26 40.91 235.26 Q39.37 235.26 38.34 234.29 Q37.32 233.31 37.32 231.64 Q37.32 227.64 40.89 224.87 Q44.46 222.10 49.73 222.10 Q54.92 222.10 58.77 224.84 Q62.61 227.57 62.61 231.77 Q62.61 235.91 59.88 239.29 Q57.14 242.68 52.80 244.08 Q58.13 245.14 61.31 248.74 Q64.49 252.35 64.49 256.76 Q64.49 262.23 60.19 266.24 Q55.88 270.26 49.59 270.26 Q43.78 270.26 39.61 267.12 Q35.44 263.97 35.44 259.29 Z " fill="black"/>
<rect x="32.50" y="207.24" width="35.00" height="4.00" fill="black"/>
<rect x="25.00" y="132.25" width="50.00" height="4.00" fill="black"/>
</svg>
