<svg xmlns="http://www.w3.org/2000/svg" width="781" height="260" viewBox="0 0 781.0 260.5">
<rect width="100%" height="100%" fill="white"/>
<line x1="0" y1="162.0" x2="781.0" y2="162.0" stroke="#d0e0ff" stroke-width="1"/>
<path d="M29.20 84.86 Q29.20 76.37 39.21 71.87 Q45.21 68.99 57.62 68.26 L57.62 64.60 Q57.62 58.40 54.37 55.10 Q51.12 51.81 47.02 51.81 Q39.70 51.81 36.18 56.40 Q39.16 56.49 40.23 57.98 Q41.31 59.47 41.31 60.99 Q41.31 62.99 40.06 64.28 Q38.82 65.58 36.72 65.58 Q34.72 65.58 33.40 64.33 Q32.08 63.09 32.08 60.89 Q32.08 56.01 36.50 52.78 Q40.92 49.56 47.22 49.56 Q55.42 49.56 60.89 55.08 Q62.60 56.79 63.45 58.98 Q64.31 61.18 64.40 62.62 Q64.50 64.06 64.50 66.89 L64.50 86.87 Q64.50 87.45 64.70 88.43 Q64.89 89.40 65.80 90.65 Q66.70 91.89 68.21 91.89 Q71.83 91.89 71.78 85.50 L71.78 79.88 L74.32 79.88 L74.32 85.50 Q74.32 90.82 71.51 92.90 Q68.70 94.97 66.11 94.97 Q62.79 94.97 60.69 92.53 Q58.59 90.09 58.30 86.77 Q56.79 90.58 53.34 93.04 Q49.90 95.51 45.21 95.51 Q41.60 95.51 38.21 94.60 Q34.81 93.70 32.01 91.19 Q29.20 88.67 29.20 84.86 Z M36.91 84.77 Q36.91 88.48 39.55 90.87 Q42.19 93.26 45.90 93.26 Q50.10 93.26 53.86 90.01 Q57.62 86.77 57.62 80.37 L57.62 70.36 Q46.53 70.75 41.72 75.17 Q36.91 79.59 36.91 84.77 Z " fill="black"/>
<path d="M105.33 68.16 Q105.62 68.16 106.13 68.21 Q106.65 68.26 106.74 68.26 L134.92 68.26 L134.92 39.99 Q134.92 39.89 134.87 39.43 Q134.82 38.96 134.82 38.67 Q134.82 36.28 136.02 36.28 Q137.21 36.28 137.21 38.67 L137.21 68.26 L165.44 68.26 Q165.53 68.26 166.02 68.21 Q166.51 68.16 166.80 68.16 Q169.10 68.16 169.12 69.38 Q169.15 70.61 166.70 70.61 Q166.41 70.61 165.97 70.56 Q165.53 70.51 165.44 70.51 L137.21 70.51 L137.21 100.20 Q137.21 102.49 136.02 102.49 Q134.82 102.49 134.82 100.10 Q134.82 99.80 134.87 99.34 Q134.92 98.88 134.92 98.78 L134.92 70.51 L106.74 70.51 Q106.65 70.51 106.08 70.56 Q105.52 70.61 105.23 70.61 Q102.94 70.61 102.94 69.38 Q102.94 68.16 105.33 68.16 Z " fill="black"/>
<path d="M200.01 29.20 L200.01 26.07 L214.42 25.00 L214.42 56.69 Q220.23 50.20 228.14 50.20 Q236.73 50.20 243.03 56.79 Q249.33 63.38 249.33 72.80 Q249.33 82.32 242.74 88.92 Q236.14 95.51 227.01 95.51 Q218.71 95.51 213.93 88.18 Q210.41 94.29 210.31 94.38 L207.82 94.38 L207.82 34.77 Q207.82 31.05 206.50 30.13 Q205.19 29.20 200.01 29.20 Z M214.71 83.01 Q214.71 85.11 216.12 87.21 Q220.08 93.26 226.52 93.26 Q226.57 93.26 226.62 93.26 Q233.60 93.26 237.95 86.87 Q241.03 82.08 241.03 72.71 Q241.03 63.43 238.15 58.79 Q234.14 52.39 227.65 52.39 Q220.32 52.39 215.83 58.79 Q214.71 60.40 214.71 62.40 L214.71 83.01 Z " fill="black"/>
<path d="M141.75 185.80 Q147.86 185.80 152.45 188.71 Q157.04 191.61 157.04 196.54 Q157.04 198.74 155.74 199.99 Q154.45 201.23 152.45 201.23 Q150.35 201.23 149.10 199.94 Q147.86 198.64 147.86 196.64 Q147.86 195.76 148.15 194.88 Q148.44 194.00 149.54 193.08 Q150.64 192.15 152.54 192.00 Q148.98 188.34 142.05 188.34 Q141.95 188.34 141.85 188.34 Q136.77 188.34 132.57 193.12 Q128.37 197.91 128.37 208.85 Q128.37 214.56 129.77 218.74 Q131.16 222.91 133.45 225.06 Q135.75 227.21 137.99 228.21 Q140.24 229.21 142.44 229.21 Q152.25 229.21 155.57 218.71 Q155.86 217.73 156.84 217.73 Q158.16 217.73 158.16 218.71 Q158.16 219.20 157.77 220.47 Q157.38 221.74 156.16 223.74 Q154.94 225.74 153.20 227.48 Q151.47 229.21 148.42 230.48 Q145.37 231.75 141.56 231.75 Q132.77 231.75 126.42 225.13 Q120.07 218.52 120.07 209.02 Q120.07 199.52 126.32 192.66 Q132.57 185.80 141.75 185.80 Z " fill="black"/>
<path d="M286.19 146.85 Q286.28 145.63 288.19 145.63 L349.47 145.63 Q352.35 145.63 352.40 146.75 Q352.40 147.97 349.66 147.92 L288.87 147.92 Q286.19 147.97 286.19 146.85 Z M286.19 127.32 Q286.19 126.10 288.29 126.15 L349.37 126.15 Q352.35 126.15 352.40 127.32 Q352.40 128.44 349.86 128.44 L288.19 128.44 Q286.19 128.44 286.19 127.32 Z " fill="black"/>
<path d="M445.26 162.03 L445.26 158.96 Q453.07 158.96 458.05 152.95 Q458.05 152.95 467.42 141.04 L457.51 128.15 Q454.00 123.66 452.46 122.85 Q450.92 122.04 445.74 122.04 L445.74 118.92 Q449.85 119.21 455.22 119.21 Q458.20 119.21 466.06 118.92 L466.06 122.04 Q462.54 122.24 462.54 124.53 Q462.54 125.32 463.42 126.34 L471.23 136.45 L477.43 128.64 Q478.95 126.83 478.95 125.12 Q478.95 122.34 476.02 122.04 L476.02 118.92 Q479.92 119.21 485.64 119.21 Q489.93 119.21 493.84 118.92 L493.84 122.04 Q486.22 122.24 481.93 127.22 Q480.02 129.32 472.75 138.55 L486.12 155.83 Q487.74 157.93 489.54 158.45 Q491.35 158.96 495.65 158.96 L495.65 162.03 Q491.15 161.74 486.03 161.74 Q484.22 161.74 475.24 162.03 L475.24 158.96 Q477.04 158.86 477.95 158.06 Q478.85 157.25 478.85 156.42 Q478.85 156.03 476.75 153.15 L469.13 143.14 Q461.52 152.12 460.54 154.22 Q460.15 155.10 460.15 155.83 Q460.15 158.52 463.03 158.96 L463.03 162.03 Q455.85 161.74 453.56 161.74 Q449.16 161.74 445.26 162.03 Z " fill="black"/>
<path d="M500.21 120.74 Q500.21 119.48 500.33 119.10 Q500.45 118.73 500.99 118.15 L514.43 103.18 Q521.77 94.90 521.77 87.69 Q521.77 83.01 519.33 79.66 Q516.89 76.31 512.41 76.31 Q509.33 76.31 506.74 78.19 Q504.14 80.07 502.94 83.42 Q503.15 83.35 503.86 83.35 Q505.61 83.35 506.58 84.45 Q507.56 85.54 507.56 87.01 Q507.56 88.89 506.34 89.80 Q505.13 90.70 503.93 90.70 Q503.45 90.70 502.82 90.60 Q502.19 90.50 501.20 89.52 Q500.21 88.55 500.21 86.80 Q500.21 81.92 503.92 78.02 Q507.62 74.12 513.30 74.12 Q519.72 74.12 523.94 77.93 Q528.17 81.75 528.17 87.69 Q528.17 89.78 527.53 91.67 Q526.90 93.57 526.06 95.04 Q525.23 96.51 522.97 98.87 Q520.71 101.23 518.90 102.90 Q517.09 104.58 513.02 108.13 L505.61 115.34 L518.22 115.34 Q524.37 115.34 524.85 114.80 Q525.53 113.81 526.39 108.58 L528.17 108.58 L526.18 120.74 L500.21 120.74 Z " fill="black"/>
<path d="M499.04 186.75 L499.04 184.60 Q502.77 184.60 503.62 184.14 Q504.48 183.68 504.48 181.42 L504.48 162.59 Q504.48 159.99 503.61 159.38 Q502.74 158.76 499.32 158.76 L499.32 156.57 L509.09 155.82 L509.09 181.49 Q509.09 183.58 509.85 184.09 Q510.60 184.60 514.02 184.60 L514.02 186.75 Q506.87 186.55 506.74 186.55 Q505.78 186.55 499.04 186.75 Z M501.98 143.62 Q501.98 142.22 503.06 141.07 Q504.14 139.93 505.68 139.93 Q507.21 139.93 508.31 140.97 Q509.40 142.01 509.40 143.64 Q509.40 145.26 508.31 146.30 Q507.21 147.35 505.68 147.35 Q504.07 147.35 503.03 146.22 Q501.98 145.09 501.98 143.62 Z " fill="black"/>
<path d="M559.92 143.43 L559.92 137.52 L586.53 137.52 L586.53 143.43 L559.92 143.43 Z " fill="black"/>
<path d="M669.12 37.30 L669.12 34.18 Q681.13 34.18 687.33 27.78 Q689.04 27.78 689.33 28.17 Q689.62 28.56 689.62 30.37 L689.62 86.47 Q689.62 89.45 691.09 90.38 Q692.55 91.31 698.95 91.31 L702.12 91.31 L702.12 94.38 Q698.61 94.09 685.91 94.09 Q673.22 94.09 669.75 94.38 L669.75 91.31 L672.92 91.31 Q679.22 91.31 680.74 90.41 Q682.25 89.50 682.25 86.47 L682.25 34.67 Q677.03 37.30 669.12 37.30 Z " fill="black"/>
<path d="M665.21 230.62 Q665.21 228.82 665.38 228.28 Q665.55 227.74 666.33 226.91 L685.52 205.53 Q696.02 193.71 696.02 183.41 Q696.02 176.72 692.53 171.93 Q689.04 167.15 682.64 167.15 Q678.25 167.15 674.54 169.83 Q670.83 172.52 669.12 177.30 Q669.41 177.21 670.43 177.21 Q672.92 177.21 674.32 178.77 Q675.71 180.33 675.71 182.43 Q675.71 185.12 673.97 186.41 Q672.24 187.70 670.53 187.70 Q669.85 187.70 668.95 187.56 Q668.04 187.41 666.63 186.02 Q665.21 184.63 665.21 182.14 Q665.21 175.16 670.51 169.59 Q675.81 164.02 683.91 164.02 Q693.09 164.02 699.12 169.47 Q705.15 174.91 705.15 183.41 Q705.15 186.39 704.25 189.10 Q703.34 191.81 702.15 193.91 Q700.95 196.01 697.73 199.37 Q694.51 202.74 691.92 205.14 Q689.33 207.53 683.52 212.61 L672.92 222.91 L690.94 222.91 Q699.73 222.91 700.41 222.13 Q701.39 220.71 702.61 213.24 L705.15 213.24 L702.32 230.62 L665.21 230.62 Z " fill="black"/>
<rect x="25.00" y="135.03" width="227.70" height="4.00" fill="black"/>
<rect x="444.04" y="55.36" width="92.69" height="4.00" fill="black"/>
<rect x="660.23" y="135.03" width="50.00" height="4.00" fill="black"/>
<path d="M388.04 135.05 L399.04 130.05 L412.56 174.75 L438.44 55.36 L444.04 55.36 L416.04 192.75 L410.24 192.75 L396.04 137.05 L388.04 135.05 Z " fill="black"/>
<path d="M656.23 38.60 Q607.73 137.03 656.23 235.47 L652.73 235.47 Q615.90 137.03 652.73 38.60 L656.23 38.60 Z " fill="black"/>
<path d="M710.23 38.60 Q758.73 137.03 710.23 235.47 L713.73 235.47 Q750.56 137.03 713.73 38.60 L710.23 38.60 Z " fill="black"/>
</svg>
