<svg xmlns="http://www.w3.org/2000/svg" width="180" height="150" viewBox="0 0 180.2 150.0">
<rect width="100%" height="100%" fill="white"/>
<line x1="0" y1="100.0" x2="180.2" y2="100.0" stroke="#d0e0ff" stroke-width="1"/>
<path d="M34.91 75.00 Q34.91 58.11 41.21 44.48 Q43.90 38.77 47.66 33.98 Q51.42 29.20 53.91 27.10 Q56.40 25.00 57.08 25.00 Q58.06 25.00 58.11 25.98 Q58.11 26.46 56.79 27.69 Q40.67 44.09 40.72 75.00 Q40.72 106.01 56.40 121.78 Q58.11 123.49 58.11 124.02 Q58.11 125.00 57.08 125.00 Q56.40 125.00 54.00 123.00 Q51.61 121.00 47.90 116.41 Q44.19 111.82 41.50 106.20 Q34.91 92.58 34.91 75.00 Z " fill="black"/>
<path d="M64.99 100.00 L64.99 96.92 Q72.80 96.92 77.78 90.92 Q77.78 90.92 87.16 79.00 L77.25 66.11 Q73.73 61.62 72.19 60.82 Q70.65 60.01 65.48 60.01 L65.48 56.88 Q69.58 57.18 74.95 57.18 Q77.93 57.18 85.79 56.88 L85.79 60.01 Q82.28 60.21 82.28 62.50 Q82.28 63.28 83.15 64.31 L90.97 74.41 L97.17 66.60 Q98.68 64.79 98.68 63.09 Q98.68 60.30 95.75 60.01 L95.75 56.88 Q99.66 57.18 105.37 57.18 Q109.67 57.18 113.57 56.88 L113.57 60.01 Q105.96 60.21 101.66 65.19 Q99.76 67.29 92.48 76.51 L105.86 93.80 Q107.47 95.90 109.28 96.41 Q111.08 96.92 115.38 96.92 L115.38 100.00 Q110.89 99.71 105.76 99.71 Q103.96 99.71 94.97 100.00 L94.97 96.92 Q96.78 96.83 97.68 96.02 Q98.58 95.21 98.58 94.38 Q98.58 93.99 96.48 91.11 L88.87 81.10 Q81.25 90.09 80.27 92.19 Q79.88 93.07 79.88 93.80 Q79.88 96.48 82.76 96.92 L82.76 100.00 Q75.59 99.71 73.29 99.71 Q68.90 99.71 64.99 100.00 Z " fill="black"/>
<path d="M122.17 124.02 Q122.17 123.54 123.44 122.31 Q139.55 105.91 139.55 75.00 Q139.55 43.99 124.07 28.32 Q122.17 26.51 122.17 25.98 Q122.17 25.00 123.14 25.00 Q123.83 25.00 126.25 27.00 Q128.66 29.00 132.35 33.59 Q136.04 38.18 138.77 43.80 Q145.36 57.42 145.36 75.00 Q145.36 91.89 139.06 105.52 Q136.38 111.23 132.62 116.02 Q128.86 120.80 126.37 122.90 Q123.88 125.00 123.14 125.00 Q122.17 125.00 122.17 124.02 Z " fill="black"/>
</svg>
