<svg xmlns="http://www.w3.org/2000/svg" width="173" height="165" viewBox="0 0 173.0 164.6">
<rect width="100%" height="100%" fill="white"/>
<line x1="0" y1="104.3" x2="173.0" y2="104.3" stroke="#d0e0ff" stroke-width="1"/>
<path d="M35.76 79.30 Q35.76 60.95 42.61 46.16 Q45.52 39.95 49.60 34.76 Q53.69 29.56 56.39 27.28 Q59.10 25.00 59.84 25.00 Q60.90 25.00 60.95 26.06 Q60.95 26.59 59.52 27.92 Q42.02 45.73 42.07 79.30 Q42.07 112.97 59.10 130.10 Q60.95 131.96 60.95 132.54 Q60.95 133.60 59.84 133.60 Q59.10 133.60 56.50 131.43 Q53.90 129.25 49.87 124.27 Q45.84 119.28 42.92 113.18 Q35.76 98.39 35.76 79.30 Z " fill="black"/>
<path d="M71.96 58.26 Q71.96 52.32 78.96 49.17 Q83.17 47.16 91.85 46.64 L91.85 44.08 Q91.85 39.74 89.58 37.43 Q87.30 35.13 84.43 35.13 Q79.31 35.13 76.84 38.34 Q78.93 38.41 79.68 39.45 Q80.43 40.49 80.43 41.55 Q80.43 42.95 79.56 43.86 Q78.69 44.76 77.22 44.76 Q75.82 44.76 74.90 43.89 Q73.97 43.02 73.97 41.48 Q73.97 38.06 77.07 35.81 Q80.16 33.55 84.57 33.55 Q90.31 33.55 94.14 37.42 Q95.34 38.61 95.93 40.15 Q96.53 41.69 96.60 42.70 Q96.67 43.70 96.67 45.69 L96.67 59.67 Q96.67 60.08 96.81 60.76 Q96.94 61.44 97.57 62.32 Q98.21 63.19 99.27 63.19 Q101.80 63.19 101.76 58.71 L101.76 54.78 L103.54 54.78 L103.54 58.71 Q103.54 62.43 101.57 63.89 Q99.61 65.34 97.80 65.34 Q95.47 65.34 94.00 63.63 Q92.53 61.92 92.33 59.60 Q91.27 62.26 88.86 63.99 Q86.45 65.72 83.17 65.72 Q80.64 65.72 78.26 65.08 Q75.89 64.45 73.92 62.69 Q71.96 60.93 71.96 58.26 Z M77.36 58.20 Q77.36 60.79 79.20 62.47 Q81.05 64.14 83.65 64.14 Q86.59 64.14 89.22 61.87 Q91.85 59.60 91.85 55.12 L91.85 48.11 Q84.09 48.39 80.72 51.48 Q77.36 54.57 77.36 58.20 Z " fill="black"/>
<path d="M69.05 93.15 L69.05 90.96 L79.13 90.21 L79.13 112.39 Q83.20 107.85 88.74 107.85 Q94.75 107.85 99.16 112.46 Q103.57 117.08 103.57 123.67 Q103.57 130.34 98.96 134.95 Q94.34 139.57 87.95 139.57 Q82.14 139.57 78.79 134.44 Q76.33 138.71 76.26 138.78 L74.52 138.78 L74.52 97.05 Q74.52 94.45 73.60 93.80 Q72.67 93.15 69.05 93.15 Z M79.34 130.82 Q79.34 132.29 80.33 133.76 Q83.10 137.99 87.61 137.99 Q87.65 137.99 87.68 137.99 Q92.57 137.99 95.61 133.52 Q97.76 130.17 97.76 123.60 Q97.76 117.11 95.75 113.86 Q92.94 109.39 88.40 109.39 Q83.27 109.39 80.13 113.86 Q79.34 114.99 79.34 116.39 L79.34 130.82 Z " fill="black"/>
<path d="M112.14 132.54 Q112.14 132.01 113.51 130.68 Q131.01 112.87 131.01 79.30 Q131.01 45.63 114.20 28.61 Q112.14 26.64 112.14 26.06 Q112.14 25.00 113.20 25.00 Q113.94 25.00 116.56 27.17 Q119.19 29.35 123.19 34.33 Q127.20 39.32 130.17 45.42 Q137.32 60.21 137.32 79.30 Q137.32 97.65 130.48 112.44 Q127.57 118.65 123.48 123.84 Q119.40 129.04 116.70 131.32 Q113.99 133.60 113.20 133.60 Q112.14 133.60 112.14 132.54 Z " fill="black"/>
<rect x="67.10" y="77.30" width="38.83" height="4.00" fill="black"/>
</svg>
