<svg xmlns="http://www.w3.org/2000/svg" width="185" height="299" viewBox="0 0 184.7 298.9">
<rect width="100%" height="100%" fill="white"/>
<line x1="0" y1="170.0" x2="184.7" y2="170.0" stroke="#d0e0ff" stroke-width="1"/>
<path d="M77.79 49.71 Q77.79 43.76 84.79 40.62 Q89.00 38.60 97.68 38.09 L97.68 35.53 Q97.68 31.19 95.41 28.88 Q93.13 26.57 90.26 26.57 Q85.13 26.57 82.67 29.79 Q84.76 29.85 85.51 30.90 Q86.26 31.94 86.26 33.00 Q86.26 34.40 85.39 35.31 Q84.52 36.21 83.05 36.21 Q81.65 36.21 80.72 35.34 Q79.80 34.47 79.80 32.93 Q79.80 29.51 82.90 27.26 Q85.99 25.00 90.40 25.00 Q96.14 25.00 99.97 28.86 Q101.16 30.06 101.76 31.60 Q102.36 33.13 102.43 34.14 Q102.50 35.15 102.50 37.13 L102.50 51.11 Q102.50 51.52 102.63 52.21 Q102.77 52.89 103.40 53.76 Q104.04 54.63 105.10 54.63 Q107.62 54.63 107.59 50.16 L107.59 46.23 L109.37 46.23 L109.37 50.16 Q109.37 53.88 107.40 55.33 Q105.44 56.79 103.63 56.79 Q101.30 56.79 99.83 55.08 Q98.36 53.37 98.16 51.04 Q97.10 53.71 94.69 55.44 Q92.28 57.16 89.00 57.16 Q86.47 57.16 84.09 56.53 Q81.72 55.90 79.75 54.14 Q77.79 52.38 77.79 49.71 Z M83.19 49.64 Q83.19 52.24 85.03 53.92 Q86.88 55.59 89.47 55.59 Q92.41 55.59 95.05 53.32 Q97.68 51.04 97.68 46.57 L97.68 39.56 Q89.92 39.83 86.55 42.93 Q83.19 46.02 83.19 49.64 Z " fill="black"/>
<path d="M74.88 84.60 L74.88 82.41 L84.96 81.66 L84.96 103.84 Q89.03 99.29 94.57 99.29 Q100.58 99.29 104.99 103.91 Q109.40 108.52 109.40 115.12 Q109.40 121.78 104.79 126.40 Q100.17 131.01 93.78 131.01 Q87.97 131.01 84.62 125.89 Q82.16 130.16 82.09 130.23 L80.35 130.23 L80.35 88.49 Q80.35 85.90 79.43 85.25 Q78.50 84.60 74.88 84.60 Z M85.17 122.26 Q85.17 123.73 86.16 125.20 Q88.93 129.44 93.44 129.44 Q93.47 129.44 93.51 129.44 Q98.40 129.44 101.44 124.96 Q103.59 121.61 103.59 115.05 Q103.59 108.56 101.57 105.31 Q98.77 100.83 94.23 100.83 Q89.10 100.83 85.95 105.31 Q85.17 106.44 85.17 107.84 L85.17 122.26 Z " fill="black"/>
<path d="M94.38 167.86 Q98.65 167.86 101.87 169.89 Q105.08 171.92 105.08 175.38 Q105.08 176.91 104.17 177.79 Q103.27 178.66 101.87 178.66 Q100.40 178.66 99.52 177.75 Q98.65 176.85 98.65 175.44 Q98.65 174.83 98.86 174.21 Q99.06 173.60 99.83 172.95 Q100.60 172.30 101.93 172.20 Q99.44 169.63 94.58 169.63 Q94.52 169.63 94.45 169.63 Q90.89 169.63 87.95 172.98 Q85.01 176.33 85.01 183.99 Q85.01 187.99 85.99 190.91 Q86.96 193.83 88.57 195.34 Q90.18 196.84 91.75 197.54 Q93.32 198.24 94.86 198.24 Q101.73 198.24 104.05 190.89 Q104.26 190.21 104.94 190.21 Q105.86 190.21 105.86 190.89 Q105.86 191.24 105.59 192.12 Q105.32 193.01 104.46 194.41 Q103.61 195.82 102.39 197.03 Q101.18 198.24 99.05 199.13 Q96.91 200.02 94.24 200.02 Q88.09 200.02 83.65 195.39 Q79.20 190.76 79.20 184.11 Q79.20 177.46 83.58 172.66 Q87.95 167.86 94.38 167.86 Z " fill="black"/>
<path d="M75.32 258.04 Q75.32 251.38 79.97 246.76 Q84.62 242.15 90.91 242.15 Q96.24 242.15 99.73 246.49 L99.73 231.35 Q99.73 228.75 98.82 228.10 Q97.92 227.45 94.29 227.45 L94.29 225.27 L104.38 224.51 L104.38 267.00 Q104.38 269.60 105.28 270.26 Q106.19 270.93 109.81 270.93 L109.81 273.08 L99.52 273.87 L99.52 269.22 Q95.90 273.84 90.16 273.87 Q84.14 273.87 79.73 269.25 Q75.32 264.64 75.32 258.04 Z M81.14 258.11 Q81.14 264.61 83.15 267.82 Q85.95 272.30 90.50 272.30 Q95.70 272.30 98.77 267.41 Q99.56 266.21 99.52 264.81 L99.52 250.46 Q99.52 249.05 98.77 247.89 Q95.90 243.69 91.22 243.69 Q86.33 243.69 83.29 248.17 Q81.14 251.52 81.14 258.11 Z " fill="black"/>
<rect x="72.93" y="68.75" width="38.83" height="4.00" fill="black"/>
<rect x="72.93" y="211.60" width="38.83" height="4.00" fill="black"/>
<rect x="72.93" y="143.01" width="38.83" height="4.00" fill="black"/>
<path d="M68.93 28.91 Q17.97 145.01 68.93 261.11 L65.43 261.11 Q26.49 145.01 65.43 28.91 L68.93 28.91 Z " fill="black"/>
<path d="M111.76 28.91 Q162.72 145.01 111.76 261.11 L115.26 261.11 Q154.20 145.01 115.26 28.91 L111.76 28.91 Z " fill="black"/>
</svg>
