<svg xmlns="http://www.w3.org/2000/svg" width="255" height="241" viewBox="0 0 255.5 240.5">
<rect width="100%" height="100%" fill="white"/>
<line x1="0" y1="145.3" x2="255.5" y2="145.3" stroke="#d0e0ff" stroke-width="1"/>
<path d="M29.20 84.86 Q29.20 76.37 39.21 71.88 Q45.21 68.99 57.62 68.26 L57.62 64.60 Q57.62 58.40 54.37 55.10 Q51.12 51.81 47.02 51.81 Q39.70 51.81 36.18 56.40 Q39.16 56.49 40.23 57.98 Q41.31 59.47 41.31 60.99 Q41.31 62.99 40.06 64.28 Q38.82 65.58 36.72 65.58 Q34.72 65.58 33.40 64.33 Q32.08 63.09 32.08 60.89 Q32.08 56.01 36.50 52.78 Q40.92 49.56 47.22 49.56 Q55.42 49.56 60.89 55.08 Q62.60 56.79 63.45 58.98 Q64.31 61.18 64.40 62.62 Q64.50 64.06 64.50 66.89 L64.50 86.87 Q64.50 87.45 64.70 88.43 Q64.89 89.40 65.80 90.65 Q66.70 91.89 68.21 91.89 Q71.83 91.89 71.78 85.50 L71.78 79.88 L74.32 79.88 L74.32 85.50 Q74.32 90.82 71.51 92.90 Q68.70 94.97 66.11 94.97 Q62.79 94.97 60.69 92.53 Q58.59 90.09 58.30 86.77 Q56.79 90.58 53.34 93.04 Q49.90 95.51 45.21 95.51 Q41.60 95.51 38.21 94.60 Q34.81 93.70 32.01 91.19 Q29.20 88.67 29.20 84.86 Z M36.91 84.77 Q36.91 88.48 39.55 90.87 Q42.19 93.26 45.90 93.26 Q50.10 93.26 53.86 90.01 Q57.62 86.77 57.62 80.37 L57.62 70.36 Q46.53 70.75 41.72 75.17 Q36.91 79.59 36.91 84.77 Z " fill="black"/>
<path d="M177.78 29.20 L177.78 26.07 L192.19 25.00 L192.19 56.69 Q198.00 50.20 205.91 50.20 Q214.50 50.20 220.80 56.79 Q227.10 63.38 227.10 72.80 Q227.10 82.32 220.51 88.92 Q213.92 95.51 204.79 95.51 Q196.48 95.51 191.70 88.18 Q188.18 94.29 188.09 94.38 L185.60 94.38 L185.60 34.77 Q185.60 31.05 184.28 30.13 Q182.96 29.20 177.78 29.20 Z M192.48 83.01 Q192.48 85.11 193.90 87.21 Q197.85 93.26 204.30 93.26 Q204.35 93.26 204.39 93.26 Q211.38 93.26 215.72 86.87 Q218.80 82.08 218.80 72.71 Q218.80 63.43 215.92 58.79 Q211.91 52.39 205.42 52.39 Q198.10 52.39 193.60 58.79 Q192.48 60.40 192.48 62.40 L192.48 83.01 Z " fill="black"/>
<path d="M52.91 169.56 Q59.01 169.56 63.60 172.47 Q68.19 175.37 68.19 180.30 Q68.19 182.50 66.89 183.75 Q65.60 184.99 63.60 184.99 Q61.50 184.99 60.25 183.70 Q59.01 182.40 59.01 180.40 Q59.01 179.52 59.30 178.64 Q59.59 177.76 60.69 176.84 Q61.79 175.91 63.70 175.76 Q60.13 172.10 53.20 172.10 Q53.10 172.10 53.00 172.10 Q47.92 172.10 43.73 176.88 Q39.53 181.67 39.53 192.61 Q39.53 198.32 40.92 202.50 Q42.31 206.67 44.60 208.82 Q46.90 210.97 49.15 211.97 Q51.39 212.97 53.59 212.97 Q63.40 212.97 66.72 202.47 Q67.02 201.49 67.99 201.49 Q69.31 201.49 69.31 202.47 Q69.31 202.96 68.92 204.23 Q68.53 205.50 67.31 207.50 Q66.09 209.50 64.36 211.24 Q62.62 212.97 59.57 214.24 Q56.52 215.51 52.71 215.51 Q43.92 215.51 37.57 208.89 Q31.23 202.28 31.23 192.78 Q31.23 183.28 37.48 176.42 Q43.73 169.56 52.91 169.56 Z " fill="black"/>
<path d="M178.42 192.90 Q178.42 183.38 185.06 176.79 Q191.70 170.20 200.68 170.20 Q208.30 170.20 213.28 176.40 L213.28 154.77 Q213.28 151.05 211.99 150.13 Q210.69 149.20 205.52 149.20 L205.52 146.07 L219.92 145.00 L219.92 205.69 Q219.92 209.40 221.22 210.36 Q222.51 211.31 227.69 211.31 L227.69 214.38 L212.99 215.51 L212.99 208.87 Q207.81 215.46 199.61 215.51 Q191.02 215.51 184.72 208.92 Q178.42 202.32 178.42 192.90 Z M186.72 193.00 Q186.72 202.28 189.60 206.87 Q193.60 213.26 200.10 213.26 Q207.52 213.26 211.91 206.28 Q213.04 204.57 212.99 202.57 L212.99 182.06 Q212.99 180.06 211.91 178.40 Q207.81 172.39 201.12 172.39 Q194.14 172.39 189.79 178.79 Q186.72 183.57 186.72 193.00 Z " fill="black"/>
</svg>
