<svg xmlns="http://www.w3.org/2000/svg" width="553" height="136" viewBox="0 0 553.4 136.5">
<rect width="100%" height="100%" fill="white"/>
<line x1="0" y1="103.4" x2="553.4" y2="103.4" stroke="#d0e0ff" stroke-width="1"/>
<path d="M27.10 65.38 Q27.10 63.89 27.95 63.18 Q28.81 62.47 29.91 62.47 Q31.05 62.47 31.87 63.22 Q32.69 63.96 32.69 65.26 Q32.69 66.65 31.73 67.43 Q30.76 68.21 29.39 68.01 Q30.59 70.02 32.80 70.92 Q35.01 71.82 37.06 71.82 Q39.21 71.82 40.95 69.97 Q42.70 68.11 42.70 63.57 Q42.70 59.71 41.20 57.49 Q39.70 55.27 36.74 55.27 L34.55 55.27 Q33.79 55.27 33.57 55.20 Q33.35 55.12 33.35 54.71 Q33.35 54.22 34.11 54.12 Q34.86 54.12 36.06 53.98 Q38.96 53.88 40.50 51.36 Q41.89 49.02 41.89 45.68 Q41.89 42.62 40.44 41.34 Q38.99 40.06 37.11 40.06 Q35.35 40.06 33.42 40.79 Q31.49 41.52 30.44 43.16 Q33.54 43.16 33.54 45.68 Q33.54 46.77 32.85 47.49 Q32.15 48.21 31.01 48.21 Q29.91 48.21 29.17 47.52 Q28.44 46.82 28.44 45.63 Q28.44 42.77 30.99 40.79 Q33.54 38.81 37.30 38.81 Q41.02 38.81 43.76 40.77 Q46.51 42.72 46.51 45.72 Q46.51 48.68 44.56 51.10 Q42.60 53.51 39.50 54.51 Q43.31 55.27 45.58 57.85 Q47.85 60.42 47.85 63.57 Q47.85 67.48 44.78 70.35 Q41.70 73.21 37.21 73.21 Q33.06 73.21 30.08 70.97 Q27.10 68.72 27.10 65.38 Z " fill="black"/>
<path d="M32.10 111.04 L43.62 93.26 L48.31 116.85 L49.19 121.14 Q49.38 120.02 50.00 118.09 Q50.61 116.16 50.70 115.67 L66.18 56.25 Q66.28 55.86 66.45 55.20 Q66.62 54.54 66.72 54.30 Q66.82 54.05 66.96 53.56 Q67.11 53.08 67.21 52.91 Q67.30 52.73 67.45 52.39 Q67.60 52.05 67.79 51.95 Q67.99 51.86 68.23 51.66 Q68.48 51.46 68.79 51.42 Q69.11 51.37 69.45 51.32 Q69.79 51.27 70.28 51.27 L79.02 51.27 Q82.10 51.27 82.10 53.27 Q82.10 55.27 79.12 55.27 L70.58 55.27 L50.41 132.37 Q50.12 133.50 49.90 133.94 Q49.68 134.38 48.99 134.77 Q48.31 135.16 47.09 135.16 L46.11 135.16 L39.72 103.37 L33.71 112.65 L32.10 111.04 Z " fill="black"/>
<path d="M78.39 103.38 L78.39 100.31 Q86.20 100.31 91.18 94.30 Q91.18 94.30 100.56 82.39 L90.64 69.50 Q87.13 65.01 85.59 64.20 Q84.05 63.39 78.88 63.39 L78.88 60.27 Q82.98 60.56 88.35 60.56 Q91.33 60.56 99.19 60.27 L99.19 63.39 Q95.67 63.59 95.67 65.88 Q95.67 66.67 96.55 67.69 L104.37 77.80 L110.57 69.99 Q112.08 68.18 112.08 66.47 Q112.08 63.69 109.15 63.39 L109.15 60.27 Q113.06 60.56 118.77 60.56 Q123.07 60.56 126.97 60.27 L126.97 63.39 Q119.36 63.59 115.06 68.57 Q113.15 70.67 105.88 79.90 L119.26 97.18 Q120.87 99.28 122.68 99.80 Q124.48 100.31 128.78 100.31 L128.78 103.38 Q124.29 103.09 119.16 103.09 Q117.35 103.09 108.37 103.38 L108.37 100.31 Q110.18 100.21 111.08 99.41 Q111.98 98.60 111.98 97.77 Q111.98 97.38 109.88 94.50 L102.27 84.49 Q94.65 93.47 93.67 95.57 Q93.28 96.45 93.28 97.18 Q93.28 99.87 96.16 100.31 L96.16 103.38 Q88.98 103.09 86.69 103.09 Q82.29 103.09 78.39 103.38 Z " fill="black"/>
<path d="M160.18 77.16 Q160.47 77.16 160.99 77.21 Q161.50 77.26 161.60 77.26 L189.77 77.26 L189.77 48.99 Q189.77 48.89 189.72 48.43 Q189.67 47.96 189.67 47.67 Q189.67 45.28 190.87 45.28 Q192.07 45.28 192.07 47.67 L192.07 77.26 L220.29 77.26 Q220.39 77.26 220.87 77.21 Q221.36 77.16 221.66 77.16 Q223.95 77.16 223.98 78.38 Q224.00 79.61 221.56 79.61 Q221.27 79.61 220.83 79.56 Q220.39 79.51 220.29 79.51 L192.07 79.51 L192.07 109.20 Q192.07 111.49 190.87 111.49 Q189.67 111.49 189.67 109.10 Q189.67 108.80 189.72 108.34 Q189.77 107.88 189.77 107.78 L189.77 79.51 L161.60 79.51 Q161.50 79.51 160.94 79.56 Q160.38 79.61 160.08 79.61 Q157.79 79.61 157.79 78.38 Q157.79 77.16 160.18 77.16 Z " fill="black"/>
<path d="M254.25 86.62 L266.13 68.30 L270.96 92.61 L271.87 97.04 Q272.07 95.88 272.70 93.90 Q273.33 91.91 273.43 91.40 L289.39 30.14 Q289.49 29.73 289.66 29.05 Q289.84 28.37 289.94 28.12 Q290.04 27.87 290.19 27.37 Q290.34 26.86 290.44 26.69 Q290.54 26.51 290.69 26.16 Q290.85 25.81 291.05 25.70 Q291.25 25.60 291.50 25.40 Q291.75 25.20 292.08 25.15 Q292.41 25.10 292.76 25.05 Q293.11 25.00 293.61 25.00 L302.63 25.00 Q305.80 25.00 305.80 27.06 Q305.80 29.13 302.73 29.13 L293.92 29.13 L273.12 108.62 Q272.82 109.78 272.60 110.23 Q272.37 110.68 271.66 111.09 Q270.96 111.49 269.70 111.49 L268.69 111.49 L262.10 78.72 L255.91 88.28 L254.25 86.62 Z " fill="black"/>
<path d="M304.91 93.86 Q304.91 85.37 314.92 80.88 Q320.93 77.99 333.33 77.26 L333.33 73.60 Q333.33 67.40 330.08 64.10 Q326.84 60.81 322.73 60.81 Q315.41 60.81 311.89 65.40 Q314.87 65.49 315.95 66.98 Q317.02 68.47 317.02 69.99 Q317.02 71.99 315.78 73.28 Q314.53 74.58 312.43 74.58 Q310.43 74.58 309.11 73.33 Q307.79 72.09 307.79 69.89 Q307.79 65.01 312.21 61.78 Q316.63 58.56 322.93 58.56 Q331.13 58.56 336.60 64.08 Q338.31 65.79 339.17 67.98 Q340.02 70.18 340.12 71.62 Q340.21 73.06 340.21 75.89 L340.21 95.87 Q340.21 96.45 340.41 97.43 Q340.61 98.40 341.51 99.65 Q342.41 100.89 343.93 100.89 Q347.54 100.89 347.49 94.50 L347.49 88.88 L350.03 88.88 L350.03 94.50 Q350.03 99.82 347.22 101.90 Q344.41 103.97 341.83 103.97 Q338.51 103.97 336.41 101.53 Q334.31 99.09 334.01 95.77 Q332.50 99.58 329.06 102.04 Q325.62 104.51 320.93 104.51 Q317.31 104.51 313.92 103.60 Q310.53 102.70 307.72 100.19 Q304.91 97.67 304.91 93.86 Z M312.63 93.77 Q312.63 97.48 315.26 99.87 Q317.90 102.26 321.61 102.26 Q325.81 102.26 329.57 99.01 Q333.33 95.77 333.33 89.37 L333.33 79.36 Q322.25 79.75 317.44 84.17 Q312.63 88.59 312.63 93.77 Z " fill="black"/>
<path d="M381.04 77.16 Q381.33 77.16 381.85 77.21 Q382.36 77.26 382.46 77.26 L410.63 77.26 L410.63 48.99 Q410.63 48.89 410.58 48.43 Q410.53 47.96 410.53 47.67 Q410.53 45.28 411.73 45.28 Q412.93 45.28 412.93 47.67 L412.93 77.26 L441.15 77.26 Q441.25 77.26 441.73 77.21 Q442.22 77.16 442.52 77.16 Q444.81 77.16 444.83 78.38 Q444.86 79.61 442.42 79.61 Q442.12 79.61 441.69 79.56 Q441.25 79.51 441.15 79.51 L412.93 79.51 L412.93 109.20 Q412.93 111.49 411.73 111.49 Q410.53 111.49 410.53 109.10 Q410.53 108.80 410.58 108.34 Q410.63 107.88 410.63 107.78 L410.63 79.51 L382.46 79.51 Q382.36 79.51 381.80 79.56 Q381.24 79.61 380.94 79.61 Q378.65 79.61 378.65 78.38 Q378.65 77.16 381.04 77.16 Z " fill="black"/>
<path d="M475.72 38.20 L475.72 35.07 L490.13 34.00 L490.13 65.69 Q495.94 59.20 503.85 59.20 Q512.44 59.20 518.74 65.79 Q525.04 72.38 525.04 81.80 Q525.04 91.32 518.45 97.92 Q511.86 104.51 502.73 104.51 Q494.43 104.51 489.64 97.18 Q486.12 103.29 486.03 103.38 L483.54 103.38 L483.54 43.77 Q483.54 40.05 482.22 39.13 Q480.90 38.20 475.72 38.20 Z M490.42 92.01 Q490.42 94.11 491.84 96.21 Q495.79 102.26 502.24 102.26 Q502.29 102.26 502.34 102.26 Q509.32 102.26 513.66 95.87 Q516.74 91.08 516.74 81.71 Q516.74 72.43 513.86 67.79 Q509.85 61.39 503.36 61.39 Q496.04 61.39 491.54 67.79 Q490.42 69.40 490.42 71.40 L490.42 92.01 Z " fill="black"/>
<rect x="77.17" y="51.27" width="52.69" height="4.00" fill="black"/>
<rect x="300.71" y="25.00" width="227.70" height="4.00" fill="black"/>
</svg>
