<svg xmlns="http://www.w3.org/2000/svg" width="451" height="161" viewBox="0 0 450.9 161.4">
<rect width="100%" height="100%" fill="white"/>
<line x1="0" y1="109.9" x2="450.9" y2="109.9" stroke="#d0e0ff" stroke-width="1"/>
<path d="M26.22 109.86 L26.22 106.78 Q34.03 106.78 39.01 100.78 Q39.01 100.78 48.39 88.86 L38.48 75.97 Q34.96 71.48 33.42 70.67 Q31.88 69.87 26.71 69.87 L26.71 66.74 Q30.81 67.04 36.18 67.04 Q39.16 67.04 47.02 66.74 L47.02 69.87 Q43.51 70.06 43.51 72.36 Q43.51 73.14 44.38 74.17 L52.20 84.27 L58.40 76.46 Q59.91 74.65 59.91 72.95 Q59.91 70.16 56.98 69.87 L56.98 66.74 Q60.89 67.04 66.60 67.04 Q70.90 67.04 74.80 66.74 L74.80 69.87 Q67.19 70.06 62.89 75.04 Q60.99 77.14 53.71 86.37 L67.09 103.66 Q68.70 105.76 70.51 106.27 Q72.31 106.78 76.61 106.78 L76.61 109.86 Q72.12 109.57 66.99 109.57 Q65.19 109.57 56.20 109.86 L56.20 106.78 Q58.01 106.69 58.91 105.88 Q59.81 105.07 59.81 104.24 Q59.81 103.85 57.71 100.97 L50.10 90.96 Q42.48 99.95 41.50 102.05 Q41.11 102.93 41.11 103.66 Q41.11 106.34 43.99 106.78 L43.99 109.86 Q36.82 109.57 34.52 109.57 Q30.13 109.57 26.22 109.86 Z " fill="black"/>
<path d="M81.17 73.57 Q81.17 72.30 81.29 71.93 Q81.41 71.55 81.96 70.97 L95.39 56.00 Q102.74 47.73 102.74 40.52 Q102.74 35.83 100.30 32.49 Q97.85 29.14 93.37 29.14 Q90.30 29.14 87.70 31.02 Q85.10 32.90 83.91 36.25 Q84.11 36.18 84.83 36.18 Q86.57 36.18 87.55 37.27 Q88.52 38.36 88.52 39.83 Q88.52 41.71 87.31 42.62 Q86.09 43.53 84.90 43.53 Q84.42 43.53 83.79 43.42 Q83.15 43.32 82.16 42.35 Q81.17 41.37 81.17 39.63 Q81.17 34.74 84.88 30.84 Q88.59 26.95 94.26 26.95 Q100.69 26.95 104.91 30.76 Q109.13 34.57 109.13 40.52 Q109.13 42.60 108.50 44.50 Q107.87 46.40 107.03 47.87 Q106.19 49.34 103.94 51.69 Q101.68 54.05 99.87 55.73 Q98.06 57.40 93.99 60.96 L86.57 68.17 L99.18 68.17 Q105.34 68.17 105.82 67.62 Q106.50 66.63 107.35 61.40 L109.13 61.40 L107.15 73.57 L81.17 73.57 Z " fill="black"/>
<path d="M80.01 136.40 L80.01 134.24 Q83.74 134.24 84.59 133.78 Q85.44 133.32 85.44 131.06 L85.44 112.23 Q85.44 109.63 84.57 109.02 Q83.70 108.40 80.28 108.40 L80.28 106.21 L90.06 105.46 L90.06 131.13 Q90.06 133.22 90.81 133.73 Q91.56 134.24 94.98 134.24 L94.98 136.40 Q87.84 136.19 87.70 136.19 Q86.74 136.19 80.01 136.40 Z M82.95 93.26 Q82.95 91.86 84.03 90.71 Q85.10 89.57 86.64 89.57 Q88.18 89.57 89.27 90.61 Q90.37 91.65 90.37 93.28 Q90.37 94.90 89.27 95.94 Q88.18 96.99 86.64 96.99 Q85.03 96.99 83.99 95.86 Q82.95 94.73 82.95 93.26 Z " fill="black"/>
<path d="M148.01 83.64 Q148.31 83.64 148.82 83.69 Q149.33 83.74 149.43 83.74 L177.60 83.74 L177.60 55.46 Q177.60 55.37 177.55 54.90 Q177.51 54.44 177.51 54.15 Q177.51 51.75 178.70 51.75 Q179.90 51.75 179.90 54.15 L179.90 83.74 L208.12 83.74 Q208.22 83.74 208.71 83.69 Q209.19 83.64 209.49 83.64 Q211.78 83.64 211.81 84.86 Q211.83 86.08 209.39 86.08 Q209.10 86.08 208.66 86.03 Q208.22 85.98 208.12 85.98 L179.90 85.98 L179.90 115.67 Q179.90 117.96 178.70 117.96 Q177.51 117.96 177.51 115.57 Q177.51 115.28 177.55 114.82 Q177.60 114.35 177.60 114.25 L177.60 85.98 L149.43 85.98 Q149.33 85.98 148.77 86.03 Q148.21 86.08 147.92 86.08 Q145.62 86.08 145.62 84.86 Q145.62 83.64 148.01 83.64 Z " fill="black"/>
<path d="M241.82 122.26 Q241.82 120.16 243.06 119.06 Q244.31 117.96 246.02 117.96 Q247.82 117.96 249.02 119.11 Q250.22 120.26 250.22 122.16 Q250.22 125.87 246.31 126.36 Q248.21 128.17 251.00 128.17 Q253.98 128.17 256.39 125.97 Q258.81 123.78 259.86 121.68 Q260.91 119.58 262.42 115.77 Q263.84 112.79 264.91 109.86 L249.92 73.34 Q248.95 70.94 247.43 70.41 Q245.92 69.87 241.82 69.87 L241.82 66.74 Q246.31 67.04 251.53 67.04 Q254.61 67.04 262.42 66.74 L262.42 69.87 Q256.81 69.87 256.81 72.46 Q256.81 72.75 257.39 74.26 L268.53 101.17 L278.63 76.56 Q279.22 75.14 279.22 74.17 Q279.22 70.06 274.53 69.87 L274.53 66.74 Q281.12 67.04 283.22 67.04 Q287.33 67.04 290.69 66.74 L290.69 69.87 Q284.00 69.87 281.42 76.27 L263.79 118.94 Q259.00 130.32 251.00 130.37 Q247.19 130.37 244.50 128.02 Q241.82 125.68 241.82 122.26 Z " fill="black"/>
<path d="M295.54 66.90 Q295.54 60.96 302.55 57.81 Q306.75 55.80 315.43 55.28 L315.43 52.72 Q315.43 48.38 313.16 46.07 Q310.88 43.76 308.01 43.76 Q302.89 43.76 300.43 46.98 Q302.51 47.05 303.26 48.09 Q304.01 49.13 304.01 50.19 Q304.01 51.59 303.14 52.50 Q302.27 53.40 300.80 53.40 Q299.40 53.40 298.48 52.53 Q297.55 51.66 297.55 50.12 Q297.55 46.70 300.65 44.45 Q303.74 42.19 308.15 42.19 Q313.89 42.19 317.72 46.05 Q318.92 47.25 319.52 48.79 Q320.11 50.33 320.18 51.34 Q320.25 52.34 320.25 54.33 L320.25 68.31 Q320.25 68.72 320.39 69.40 Q320.52 70.08 321.16 70.95 Q321.79 71.83 322.85 71.83 Q325.38 71.83 325.34 67.35 L325.34 63.42 L327.12 63.42 L327.12 67.35 Q327.12 71.07 325.15 72.53 Q323.19 73.98 321.38 73.98 Q319.05 73.98 317.58 72.27 Q316.11 70.56 315.91 68.24 Q314.85 70.90 312.44 72.63 Q310.03 74.36 306.75 74.36 Q304.22 74.36 301.84 73.72 Q299.47 73.09 297.50 71.33 Q295.54 69.57 295.54 66.90 Z M300.94 66.84 Q300.94 69.43 302.78 71.11 Q304.63 72.78 307.23 72.78 Q310.17 72.78 312.80 70.51 Q315.43 68.24 315.43 63.76 L315.43 56.75 Q307.67 57.03 304.31 60.12 Q300.94 63.21 300.94 66.84 Z " fill="black"/>
<path d="M333.27 55.21 Q333.48 55.21 333.84 55.25 Q334.20 55.28 334.26 55.28 L353.99 55.28 L353.99 35.49 Q353.99 35.42 353.95 35.10 Q353.92 34.78 353.92 34.57 Q353.92 32.90 354.75 32.90 Q355.59 32.90 355.59 34.57 L355.59 55.28 L375.35 55.28 Q375.42 55.28 375.76 55.25 Q376.10 55.21 376.30 55.21 Q377.91 55.21 377.93 56.07 Q377.95 56.92 376.24 56.92 Q376.03 56.92 375.72 56.89 Q375.42 56.86 375.35 56.86 L355.59 56.86 L355.59 77.64 Q355.59 79.24 354.75 79.24 Q353.92 79.24 353.92 77.57 Q353.92 77.36 353.95 77.04 Q353.99 76.71 353.99 76.65 L353.99 56.86 L334.26 56.86 Q334.20 56.86 333.80 56.89 Q333.41 56.92 333.20 56.92 Q331.60 56.92 331.60 56.07 Q331.60 55.21 333.27 55.21 Z " fill="black"/>
<path d="M384.00 27.94 L384.00 25.75 L394.08 25.00 L394.08 47.18 Q398.15 42.64 403.68 42.64 Q409.70 42.64 414.11 47.25 Q418.52 51.87 418.52 58.46 Q418.52 65.13 413.90 69.74 Q409.29 74.36 402.90 74.36 Q397.09 74.36 393.74 69.23 Q391.28 73.50 391.21 73.57 L389.46 73.57 L389.46 31.84 Q389.46 29.24 388.54 28.59 Q387.62 27.94 384.00 27.94 Z M394.28 65.61 Q394.28 67.08 395.27 68.54 Q398.04 72.78 402.55 72.78 Q402.59 72.78 402.62 72.78 Q407.51 72.78 410.55 68.31 Q412.71 64.96 412.71 58.39 Q412.71 51.90 410.69 48.65 Q407.89 44.17 403.34 44.17 Q398.21 44.17 395.07 48.65 Q394.28 49.78 394.28 51.18 L394.28 65.61 Z " fill="black"/>
</svg>
