<svg xmlns="http://www.w3.org/2000/svg" width="248" height="149" viewBox="0 0 248.4 149.2">
<rect width="100%" height="100%" fill="white"/>
<line x1="0" y1="97.7" x2="248.4" y2="97.7" stroke="#d0e0ff" stroke-width="1"/>
<path d="M41.40 112.80 L105.10 112.80 L105.10 120.40 L30.10 120.40 L30.10 114.60 L65.80 70.10 L30.90 30.90 L30.90 25.00 L101.60 25.00 L101.60 32.60 L42.70 32.60 L76.30 69.90 L41.40 112.80 Z " fill="black"/>
<path d="M112.46 61.41 L112.46 59.26 Q116.18 59.26 117.04 58.80 Q117.89 58.33 117.89 56.08 L117.89 37.31 Q117.89 34.72 116.98 34.07 Q116.08 33.42 112.46 33.42 L112.46 31.23 L122.30 30.48 L122.30 37.83 Q125.58 30.48 132.66 30.48 Q137.92 30.48 140.00 33.08 Q141.54 34.82 141.87 36.77 Q142.19 38.71 142.19 43.77 L142.19 57.14 Q142.26 58.61 143.39 58.93 Q144.52 59.26 147.66 59.26 L147.66 61.41 Q140.52 61.20 139.80 61.20 Q139.25 61.20 131.90 61.41 L131.90 59.26 Q135.63 59.26 136.50 58.80 Q137.37 58.33 137.37 56.08 L137.37 39.77 Q137.37 36.22 136.28 34.12 Q135.19 32.02 132.18 32.02 Q128.55 32.02 125.65 35.06 Q122.74 38.10 122.74 43.23 L122.74 56.08 Q122.74 58.33 123.62 58.80 Q124.49 59.26 128.18 59.26 L128.18 61.41 Q121.03 61.20 120.35 61.20 Q119.80 61.20 112.46 61.41 Z " fill="black"/>
<path d="M112.52 124.24 L112.52 122.08 Q116.25 122.08 117.10 121.62 Q117.96 121.16 117.96 118.90 L117.96 100.07 Q117.96 97.47 117.09 96.86 Q116.22 96.24 112.80 96.24 L112.80 94.06 L122.57 93.30 L122.57 118.97 Q122.57 121.06 123.33 121.57 Q124.08 122.08 127.49 122.08 L127.49 124.24 Q120.35 124.03 120.21 124.03 Q119.26 124.03 112.52 124.24 Z M115.46 81.10 Q115.46 79.70 116.54 78.56 Q117.62 77.41 119.16 77.41 Q120.69 77.41 121.79 78.45 Q122.88 79.49 122.88 81.12 Q122.88 82.74 121.79 83.78 Q120.69 84.83 119.16 84.83 Q117.55 84.83 116.51 83.70 Q115.46 82.57 115.46 81.10 Z " fill="black"/>
<path d="M171.92 97.70 L171.92 94.62 Q179.73 94.62 184.71 88.62 Q184.71 88.62 194.08 76.70 L184.17 63.81 Q180.66 59.32 179.12 58.52 Q177.58 57.71 172.40 57.71 L172.40 54.58 Q176.51 54.88 181.88 54.88 Q184.85 54.88 192.72 54.58 L192.72 57.71 Q189.20 57.91 189.20 60.20 Q189.20 60.98 190.08 62.01 L197.89 72.11 L204.09 64.30 Q205.61 62.49 205.61 60.79 Q205.61 58.00 202.68 57.71 L202.68 54.58 Q206.58 54.88 212.30 54.88 Q216.59 54.88 220.50 54.58 L220.50 57.71 Q212.88 57.91 208.59 62.89 Q206.68 64.99 199.41 74.21 L212.78 91.50 Q214.40 93.60 216.20 94.11 Q218.01 94.62 222.31 94.62 L222.31 97.70 Q217.81 97.41 212.69 97.41 Q210.88 97.41 201.90 97.70 L201.90 94.62 Q203.70 94.53 204.61 93.72 Q205.51 92.91 205.51 92.08 Q205.51 91.69 203.41 88.81 L195.79 78.80 Q188.18 87.79 187.20 89.89 Q186.81 90.77 186.81 91.50 Q186.81 94.18 189.69 94.62 L189.69 97.70 Q182.51 97.41 180.22 97.41 Q175.82 97.41 171.92 97.70 Z " fill="black"/>
</svg>
