<svg xmlns="http://www.w3.org/2000/svg" width="239" height="318" viewBox="0 0 238.6 318.0">
<rect width="100%" height="100%" fill="white"/>
<line x1="0" y1="177.7" x2="238.6" y2="177.7" stroke="#d0e0ff" stroke-width="1"/>
<path d="M47.96 208.85 L137.14 208.85 L137.14 219.49 L32.14 219.49 L32.14 211.37 L82.12 149.07 L33.26 94.19 L33.26 85.93 L132.24 85.93 L132.24 96.57 L49.78 96.57 L96.82 148.79 L47.96 208.85 Z " fill="black"/>
<path d="M67.48 65.93 L67.48 63.78 Q71.21 63.78 72.06 63.32 Q72.92 62.86 72.92 60.60 L72.92 41.84 Q72.92 39.24 72.01 38.59 Q71.10 37.94 67.48 37.94 L67.48 35.75 L77.33 35.00 L77.33 42.35 Q80.61 35.00 87.68 35.00 Q92.95 35.00 95.03 37.60 Q96.57 39.34 96.89 41.29 Q97.22 43.24 97.22 48.30 L97.22 61.66 Q97.29 63.13 98.41 63.45 Q99.54 63.78 102.69 63.78 L102.69 65.93 Q95.54 65.73 94.83 65.73 Q94.28 65.73 86.93 65.93 L86.93 63.78 Q90.66 63.78 91.53 63.32 Q92.40 62.86 92.40 60.60 L92.40 44.30 Q92.40 40.74 91.31 38.64 Q90.21 36.54 87.20 36.54 Q83.58 36.54 80.68 39.58 Q77.77 42.62 77.77 47.75 L77.77 60.60 Q77.77 62.86 78.64 63.32 Q79.51 63.78 83.20 63.78 L83.20 65.93 Q76.06 65.73 75.38 65.73 Q74.83 65.73 67.48 65.93 Z " fill="black"/>
<path d="M77.27 282.99 L77.27 280.84 Q81.00 280.84 81.85 280.37 Q82.71 279.91 82.71 277.66 L82.71 258.82 Q82.71 256.23 81.84 255.61 Q80.97 255.00 77.55 255.00 L77.55 252.81 L87.32 252.06 L87.32 277.73 Q87.32 279.81 88.08 280.32 Q88.83 280.84 92.24 280.84 L92.24 282.99 Q85.10 282.78 84.96 282.78 Q84.01 282.78 77.27 282.99 Z M80.21 239.85 Q80.21 238.45 81.29 237.31 Q82.37 236.16 83.91 236.16 Q85.44 236.16 86.54 237.21 Q87.63 238.25 87.63 239.87 Q87.63 241.49 86.54 242.54 Q85.44 243.58 83.91 243.58 Q82.30 243.58 81.26 242.45 Q80.21 241.32 80.21 239.85 Z " fill="black"/>
<path d="M162.17 177.71 L162.17 174.64 Q169.98 174.64 174.96 168.63 Q174.96 168.63 184.34 156.72 L174.42 143.83 Q170.91 139.33 169.37 138.53 Q167.83 137.72 162.66 137.72 L162.66 134.60 Q166.76 134.89 172.13 134.89 Q175.11 134.89 182.97 134.60 L182.97 137.72 Q179.45 137.92 179.45 140.21 Q179.45 140.99 180.33 142.02 L188.14 152.13 L194.35 144.31 Q195.86 142.51 195.86 140.80 Q195.86 138.02 192.93 137.72 L192.93 134.60 Q196.84 134.89 202.55 134.89 Q206.85 134.89 210.75 134.60 L210.75 137.72 Q203.13 137.92 198.84 142.90 Q196.93 145.00 189.66 154.23 L203.04 171.51 Q204.65 173.61 206.45 174.12 Q208.26 174.64 212.56 174.64 L212.56 177.71 Q208.07 177.42 202.94 177.42 Q201.13 177.42 192.15 177.71 L192.15 174.64 Q193.95 174.54 194.86 173.73 Q195.76 172.93 195.76 172.10 Q195.76 171.71 193.66 168.83 L186.04 158.82 Q178.43 167.80 177.45 169.90 Q177.06 170.78 177.06 171.51 Q177.06 174.20 179.94 174.64 L179.94 177.71 Q172.76 177.42 170.47 177.42 Q166.07 177.42 162.17 177.71 Z " fill="black"/>
</svg>
